<svg width="512" height="512" viewBox="0 0 512 512" fill="none" xmlns="http://www.w3.org/2000/svg">
<g clip-path="url(#clip0_62_2)">
<rect width="512" height="512" fill="white"/>
<path d="M476.533 304L324 456.533C319.733 460.8 314.933 464 309.6 466.133C304.267 468.267 298.933 469.333 293.6 469.333C288.267 469.333 282.933 468.267 277.6 466.133C272.267 464 267.467 460.8 263.2 456.533L74.9334 268.267C71.0223 264.356 68.0001 259.822 65.8667 254.667C63.7334 249.511 62.6667 244.089 62.6667 238.4V85.3333C62.6667 73.6 66.8445 63.5555 75.2001 55.2C83.5556 46.8444 93.6001 42.6667 105.333 42.6667H258.4C264.089 42.6667 269.6 43.8222 274.933 46.1333C280.267 48.4444 284.889 51.5555 288.8 55.4667L476.533 243.733C480.8 248 483.911 252.8 485.867 258.133C487.822 263.467 488.8 268.8 488.8 274.133C488.8 279.467 487.822 284.711 485.867 289.867C483.911 295.022 480.8 299.733 476.533 304ZM158.667 170.667C167.556 170.667 175.111 167.556 181.333 161.333C187.556 155.111 190.667 147.556 190.667 138.667C190.667 129.778 187.556 122.222 181.333 116C175.111 109.778 167.556 106.667 158.667 106.667C149.778 106.667 142.222 109.778 136 116C129.778 122.222 126.667 129.778 126.667 138.667C126.667 147.556 129.778 155.111 136 161.333C142.222 167.556 149.778 170.667 158.667 170.667Z" fill="#1F1F1F"/>
<path d="M153.2 434.133L168.133 419.2L128.667 379.733V330.667H107.333V388.267L153.2 434.133ZM118 490.667C103.244 490.667 89.3777 487.867 76.3999 482.267C63.4221 476.667 52.1333 469.067 42.5333 459.467C32.9333 449.867 25.3333 438.578 19.7333 425.6C14.1333 412.622 11.3333 398.756 11.3333 384C11.3333 369.244 14.1333 355.378 19.7333 342.4C25.3333 329.422 32.9333 318.133 42.5333 308.533C52.1333 298.933 63.4221 291.333 76.3999 285.733C89.3777 280.133 103.244 277.333 118 277.333C132.755 277.333 146.622 280.133 159.6 285.733C172.578 291.333 183.867 298.933 193.467 308.533C203.067 318.133 210.667 329.422 216.267 342.4C221.867 355.378 224.667 369.244 224.667 384C224.667 398.756 221.867 412.622 216.267 425.6C210.667 438.578 203.067 449.867 193.467 459.467C183.867 469.067 172.578 476.667 159.6 482.267C146.622 487.867 132.755 490.667 118 490.667Z" fill="#1F1F1F"/>
<path d="M153.2 434.133L168.133 419.2L128.667 379.733V330.667H107.333V388.267L153.2 434.133Z" fill="white"/>
<path d="M118 269.333C133.797 269.333 148.747 272.337 162.77 278.388C176.637 284.372 188.779 292.532 199.123 302.876C209.468 313.221 217.628 325.363 223.612 339.231C229.662 353.253 232.666 368.204 232.666 384C232.666 399.797 229.662 414.747 223.612 428.77C217.628 442.637 209.467 454.779 199.123 465.123C188.779 475.467 176.637 483.628 162.77 489.612C148.747 495.662 133.797 498.666 118 498.666C102.204 498.666 87.2533 495.662 73.2307 489.612C59.3634 483.628 47.2205 475.468 36.8762 465.123C26.5321 454.779 18.3717 442.637 12.3879 428.77C6.33714 414.747 3.33329 399.797 3.33325 384C3.33325 368.204 6.33718 353.253 12.3879 339.231C18.3718 325.363 26.532 313.221 36.8762 302.876C47.2205 292.532 59.3634 284.372 73.2307 278.388C87.2532 272.337 102.204 269.333 118 269.333Z" stroke="white" stroke-width="16"/>
</g>
<defs>
<clipPath id="clip0_62_2">
<rect width="512" height="512" fill="white"/>
</clipPath>
</defs>
</svg>
